<?xml version="1.0" encoding="UTF-8" standalone="no"?>
<!-- Created with Inkscape (http://www.inkscape.org/) -->

<svg
   xmlns:dc="http://purl.org/dc/elements/1.1/"
   xmlns:cc="http://creativecommons.org/ns#"
   xmlns:rdf="http://www.w3.org/1999/02/22-rdf-syntax-ns#"
   xmlns:svg="http://www.w3.org/2000/svg"
   xmlns="http://www.w3.org/2000/svg"
   xmlns:xlink="http://www.w3.org/1999/xlink"
   xmlns:sodipodi="http://sodipodi.sourceforge.net/DTD/sodipodi-0.dtd"
   xmlns:inkscape="http://www.inkscape.org/namespaces/inkscape"
   width="2000"
   height="1226.0217"
   viewBox="0 0 529.16671 324.38492"
   version="1.1"
   id="svg8"
   sodipodi:docname="backdrop.svg"
   inkscape:version="0.92.2 (5c3e80d, 2017-08-06)">
    
  <style type="text/css">
    #left_blink, #right_blink {
      animation: blink 2.5s ease alternate infinite;
    }
    
    #right_blink {
      animation-delay: 0.4s;  
    }

    @keyframes blink {
      0% { height: 5%; }
      10% { transform: height: 1%; }
      30% { transform: height: 5%; }
    }  
  </style>
  <defs
     id="defs2">
    <linearGradient
       inkscape:collect="always"
       id="linearGradient4842">
      <stop
         style="stop-color:#ffffff;stop-opacity:0.13725491"
         offset="0"
         id="stop4838" />
      <stop
         style="stop-color:#ffffff;stop-opacity:0;"
         offset="1"
         id="stop4840" />
    </linearGradient>
    <linearGradient
       inkscape:collect="always"
       id="linearGradient4519">
      <stop
         style="stop-color:#004358;stop-opacity:1"
         offset="0"
         id="stop4515" />
      <stop
         style="stop-color:#002f3c;stop-opacity:1"
         offset="1"
         id="stop4517" />
    </linearGradient>
    <radialGradient
       inkscape:collect="always"
       xlink:href="#linearGradient4519"
       id="radialGradient4521"
       cx="98.18129"
       cy="268.90955"
       fx="98.18129"
       fy="268.90955"
       r="251.35417"
       gradientTransform="matrix(0.70390296,-0.64426898,0.71105475,0.65171791,-211.94706,162.09806)"
       gradientUnits="userSpaceOnUse" />
    <filter
       inkscape:collect="always"
       style="color-interpolation-filters:sRGB"
       id="filter4680"
       x="-0.204"
       width="1.408"
       y="-0.204"
       height="1.408">
      <feGaussianBlur
         inkscape:collect="always"
         stdDeviation="0.64746049"
         id="feGaussianBlur4682" />
    </filter>
    <filter
       inkscape:collect="always"
       style="color-interpolation-filters:sRGB"
       id="filter4813"
       x="-0.20116358"
       width="1.4023272"
       y="-0.11213515"
       height="1.2242703">
      <feGaussianBlur
         inkscape:collect="always"
         stdDeviation="1.0375492"
         id="feGaussianBlur4815" />
    </filter>
    <linearGradient
       inkscape:collect="always"
       xlink:href="#linearGradient4842"
       id="linearGradient4844"
       x1="305.91754"
       y1="1177.0684"
       x2="332.85715"
       y2="1605.3768"
       gradientUnits="userSpaceOnUse" />
    <linearGradient
       inkscape:collect="always"
       xlink:href="#linearGradient4842"
       id="linearGradient5124"
       gradientUnits="userSpaceOnUse"
       x1="305.91754"
       y1="1177.0684"
       x2="332.85715"
       y2="1605.3768"
       gradientTransform="matrix(0.25074693,0,0,0.25856359,-31.937592,12.584093)" />
    <filter
       inkscape:collect="always"
       style="color-interpolation-filters:sRGB"
       id="filter5154"
       x="-0.12001414"
       width="1.2400283"
       y="-0.12001414"
       height="1.2400283">
      <feGaussianBlur
         inkscape:collect="always"
         stdDeviation="0.38090388"
         id="feGaussianBlur5156" />
    </filter>
    <filter
       inkscape:collect="always"
       style="color-interpolation-filters:sRGB"
       id="filter5182"
       x="-0.12001414"
       width="1.2400283"
       y="-0.12001414"
       height="1.2400283">
      <feGaussianBlur
         inkscape:collect="always"
         stdDeviation="0.38090388"
         id="feGaussianBlur5184" />
    </filter>
  </defs>
  <sodipodi:namedview
     id="base"
     pagecolor="#ffffff"
     bordercolor="#666666"
     borderopacity="1.0"
     inkscape:pageopacity="0"
     inkscape:pageshadow="2"
     inkscape:zoom="3.5302976"
     inkscape:cx="947.68533"
     inkscape:cy="528.89665"
     inkscape:document-units="px"
     inkscape:current-layer="layer1"
     showgrid="false"
     showborder="true"
     inkscape:window-width="1920"
     inkscape:window-height="986"
     inkscape:window-x="-11"
     inkscape:window-y="-11"
     inkscape:window-maximized="1"
     inkscape:snap-global="true"
     units="px"
     fit-margin-top="0"
     fit-margin-left="0"
     fit-margin-right="0"
     fit-margin-bottom="0" />
  <metadata
     id="metadata5">
    <rdf:RDF>
      <cc:Work
         rdf:about="">
        <dc:format>image/svg+xml</dc:format>
        <dc:type
           rdf:resource="http://purl.org/dc/dcmitype/StillImage" />
        <dc:title></dc:title>
      </cc:Work>
    </rdf:RDF>
  </metadata>
  <g
     inkscape:label="Layer 1"
     inkscape:groupmode="layer"
     id="layer1"
     transform="translate(214.41963,-98.278207)">
    <rect
       style="fill:url(#radialGradient4521);fill-opacity:1;stroke-width:0.26910466"
       id="rect10"
       width="532.14368"
       height="327.60007"
       x="-215.43593"
       y="98.030586" />
    <ellipse
       ry="120.0378"
       rx="116.94291"
       cy="276.92557"
       cx="50.635815"
       id="ellipse4852"
       style="opacity:0.98999999;fill:#ffffff;fill-opacity:0.03137255;stroke:none;stroke-width:0.26927343;stroke-opacity:0" />
    <ellipse
       style="opacity:0.98999999;fill:#ffffff;fill-opacity:0.0627451;stroke:none;stroke-width:0.24173573;stroke-opacity:0"
       id="ellipse4850"
       cx="50.635815"
       cy="279.79871"
       rx="104.98357"
       ry="107.76196" />
    <ellipse
       ry="91.82943"
       rx="89.461838"
       cy="282.14938"
       cx="50.635815"
       id="ellipse4848"
       style="opacity:0.98999999;fill:#ffffff;fill-opacity:0.09411765;stroke:none;stroke-width:0.20599529;stroke-opacity:0" />
    <ellipse
       style="opacity:0.98999999;fill:#ffffff;fill-opacity:1;stroke:none;stroke-width:0.18063465;stroke-opacity:0"
       id="path4846"
       cx="50.635815"
       cy="285.09677"
       rx="78.447968"
       ry="80.524063" />
    <path
       style="fill:#002834;fill-opacity:1;stroke-width:0.26910466"
       d="m 50.635915,316.93094 a 362.13635,149.92227 0 0 0 -266.071785,48.49325 v 60.20647 H 316.70767 V 365.36617 A 362.13635,149.92227 0 0 0 50.635915,316.93094 Z"
       id="path4510"
       inkscape:connector-curvature="0" />
    <rect
       style="fill:#002834;fill-opacity:1;stroke-width:0.24554646"
       id="rect4523"
       width="80.932129"
       height="41.445343"
       x="10.169839"
       y="282.79901" />
    <path
       style="fill:#002834;fill-opacity:1;stroke:none;stroke-width:0.14809334"
       d="M 10.722757,268.25233 H 91.65491 l 9.39972,15.07573 H 0.21719354 Z"
       id="rect4525"
       inkscape:connector-curvature="0"
       sodipodi:nodetypes="ccccc" />
    <rect
       style="fill:#eeffaa;fill-opacity:1;stroke-width:0.18607232"
       id="rect4532"
       width="7.2188406"
       height="7.4438767"
       x="22.267036"
       y="293.42392" />
    <rect
       y="287.37833"
       x="57.195618"
       height="7.6171803"
       width="7.6171803"
       id="rect4534"
       style="fill:#eeffaa;fill-opacity:1;stroke-width:0.19334936;filter:url(#filter4680)"
       transform="matrix(0.94770519,0,0,0.97724839,-31.937547,12.583998)" />
    <rect
       style="fill:#eeffaa;fill-opacity:1;stroke-width:0.19334936;filter:url(#filter5154)"
       id="rect4684"
       width="7.6171803"
       height="7.6171803"
       x="57.195618"
       y="287.37833"
       transform="matrix(0.94770519,0,0,0.97724839,-31.937547,12.583998)" />
    <rect
       y="293.42392"
       x="72.177406"
       height="7.4438767"
       width="7.2188406"
       id="rect4686"
       style="fill:#eeffaa;fill-opacity:1;stroke-width:0.18607232" />
    <rect
       style="fill:#eeffaa;fill-opacity:1;stroke-width:0.19334936;filter:url(#filter4680)"
       id="rect4688"
       width="7.6171803"
       height="7.6171803"
       x="109.86006"
       y="287.37833"
       transform="matrix(0.94770519,0,0,0.97724839,-31.937547,12.583998)" />
    <rect
       y="287.37833"
       x="109.86006"
       height="7.6171803"
       width="7.6171803"
       id="rect4690"
       style="fill:#eeffaa;fill-opacity:1;stroke-width:0.19334936;filter:url(#filter5182)"
       transform="matrix(0.94770519,0,0,0.97724839,-31.937547,12.583998)" />
    <path
       style="fill:#eeffaa;fill-opacity:1;stroke-width:0.20641163"
       d="m 44.770293,295.22993 v 1.03171 20.66947 h 1.000536 v -20.75729 l 10.730698,-0.94389 H 45.770829 Z"
       id="rect4704"
       inkscape:connector-curvature="0" />
    <path
       inkscape:connector-curvature="0"
       id="path4791"
       d="m 80.940613,289.22631 v 1.05574 21.15066 h 1.055747 v -21.24057 l 11.322823,-0.96583 H 81.99636 Z"
       style="fill:#eeffaa;fill-opacity:1;stroke-width:0.21448413;filter:url(#filter4813)"
       transform="matrix(0.94770519,0,0,0.97724839,-31.937547,12.583998)" />
    <path
       style="fill:url(#linearGradient5124);fill-opacity:1;stroke:none;stroke-width:0.25462529px;stroke-linecap:butt;stroke-linejoin:miter;stroke-opacity:1"
       d="m 45.770829,316.9311 h -1.000538 c 0,0 -16.532893,12.62709 -17.60311,22.09455 -1.915413,16.94438 23.829707,29.02032 21.84005,45.95559 -2.060696,17.53988 -32.987514,40.6496 -32.987514,40.6496 h 63.381184 c 0,0 3.454906,-29.75343 -2.095149,-42.86542 -8.04549,-19.00751 -39.097611,-24.04426 -42.121036,-44.54778 -1.151643,-7.8099 10.427806,-21.11924 10.427806,-21.11924 z"
       id="path4817"
       inkscape:connector-curvature="0"
       sodipodi:nodetypes="ccaaccaacc" />
    <path
       sodipodi:type="star"
       style="opacity:0.98999999;fill:#002834;fill-opacity:1;stroke:none;stroke-width:0.22682309;stroke-opacity:0"
       id="path4868"
       sodipodi:sides="3"
       sodipodi:cx="-115.79715"
       sodipodi:cy="250.67328"
       sodipodi:r1="72.781303"
       sodipodi:r2="36.390652"
       sodipodi:arg1="0.52359878"
       sodipodi:arg2="1.5707963"
       inkscape:flatsided="true"
       inkscape:rounded="0"
       inkscape:randomized="0"
       d="m -52.766692,287.06393 -126.060918,0 63.03046,-109.17195 z"
       inkscape:transform-center-y="-17.781362"
       transform="matrix(0.25650996,0,0,0.97724817,-115.52209,90.940688)"
       inkscape:transform-center-x="-9.6994922e-006" />
    <path
       transform="matrix(0.25650996,0,0,0.97724817,-98.804786,112.88053)"
       inkscape:transform-center-y="-17.781362"
       d="m -52.766692,287.06393 -126.060918,0 63.03046,-109.17195 z"
       inkscape:randomized="0"
       inkscape:rounded="0"
       inkscape:flatsided="true"
       sodipodi:arg2="1.5707963"
       sodipodi:arg1="0.52359878"
       sodipodi:r2="36.390652"
       sodipodi:r1="72.781303"
       sodipodi:cy="250.67328"
       sodipodi:cx="-115.79715"
       sodipodi:sides="3"
       id="path4872"
       style="opacity:0.98999999;fill:#002834;fill-opacity:1;stroke:none;stroke-width:0.22682309;stroke-opacity:0"
       sodipodi:type="star" />
    <path
       sodipodi:type="star"
       style="opacity:0.98999999;fill:#002834;fill-opacity:1;stroke:none;stroke-width:0.22682309;stroke-opacity:0"
       id="path4874"
       sodipodi:sides="3"
       sodipodi:cx="-115.79715"
       sodipodi:cy="250.67328"
       sodipodi:r1="72.781303"
       sodipodi:r2="36.390652"
       sodipodi:arg1="0.52359878"
       sodipodi:arg2="1.5707963"
       inkscape:flatsided="true"
       inkscape:rounded="0"
       inkscape:randomized="0"
       d="m -52.766692,287.06393 -126.060918,0 63.03046,-109.17195 z"
       inkscape:transform-center-y="-17.781355"
       transform="matrix(0.25650996,0,0,0.97724817,14.163741,98.253976)" />
    <path
       transform="matrix(0.25650996,0,0,0.97724817,145.36933,119.67144)"
       inkscape:transform-center-y="-17.781361"
       d="m -52.766692,287.06393 -126.060918,0 63.03046,-109.17195 z"
       inkscape:randomized="0"
       inkscape:rounded="0"
       inkscape:flatsided="true"
       sodipodi:arg2="1.5707963"
       sodipodi:arg1="0.52359878"
       sodipodi:r2="36.390652"
       sodipodi:r1="72.781303"
       sodipodi:cy="250.67328"
       sodipodi:cx="-115.79715"
       sodipodi:sides="3"
       id="path4876"
       style="opacity:0.98999999;fill:#002834;fill-opacity:1;stroke:none;stroke-width:0.22682309;stroke-opacity:0"
       sodipodi:type="star"
       inkscape:transform-center-x="4.4653141e-006" />
    <path
       sodipodi:type="star"
       style="opacity:0.98999999;fill:#002834;fill-opacity:1;stroke:none;stroke-width:0.22682309;stroke-opacity:0"
       id="path4878"
       sodipodi:sides="3"
       sodipodi:cx="-115.79715"
       sodipodi:cy="250.67328"
       sodipodi:r1="72.781303"
       sodipodi:r2="36.390652"
       sodipodi:arg1="0.52359878"
       sodipodi:arg2="1.5707963"
       inkscape:flatsided="true"
       inkscape:rounded="0"
       inkscape:randomized="0"
       d="m -52.766692,287.06393 -126.060918,0 63.03046,-109.17195 z"
       inkscape:transform-center-y="-17.781359"
       transform="matrix(0.25650996,0,0,0.97724817,152.46154,108.70152)"
       inkscape:transform-center-x="-6.1007098e-006" />
    <path
       transform="matrix(0.25650996,0,0,0.97724817,219.83737,97.731597)"
       inkscape:transform-center-y="-17.781361"
       d="m -52.766692,287.06393 -126.060918,0 63.03046,-109.17195 z"
       inkscape:randomized="0"
       inkscape:rounded="0"
       inkscape:flatsided="true"
       sodipodi:arg2="1.5707963"
       sodipodi:arg1="0.52359878"
       sodipodi:r2="36.390652"
       sodipodi:r1="72.781303"
       sodipodi:cy="250.67328"
       sodipodi:cx="-115.79715"
       sodipodi:sides="3"
       id="path4880"
       style="opacity:0.98999999;fill:#002834;fill-opacity:1;stroke:none;stroke-width:0.22682309;stroke-opacity:0"
       sodipodi:type="star"
       inkscape:transform-center-x="1.5643813e-006" />
    <path
       sodipodi:type="star"
       style="opacity:0.98999999;fill:#002834;fill-opacity:1;stroke:none;stroke-width:0.22682309;stroke-opacity:0"
       id="path4882"
       sodipodi:sides="3"
       sodipodi:cx="-115.79715"
       sodipodi:cy="250.67328"
       sodipodi:r1="72.781303"
       sodipodi:r2="36.390652"
       sodipodi:arg1="0.52359878"
       sodipodi:arg2="1.5707963"
       inkscape:flatsided="true"
       inkscape:rounded="0"
       inkscape:randomized="0"
       d="m -52.766692,287.06393 -126.060918,0 63.03046,-109.17195 z"
       inkscape:transform-center-y="-17.781368"
       transform="matrix(0.25650996,0,0,0.97724817,230.98226,111.31339)"
       inkscape:transform-center-x="-6.3582864e-006" />
    <path
       transform="matrix(0.25650996,0,0,0.97724817,249.13375,84.14979)"
       inkscape:transform-center-y="-17.781358"
       d="m -52.766692,287.06393 -126.060918,0 63.03046,-109.17195 z"
       inkscape:randomized="0"
       inkscape:rounded="0"
       inkscape:flatsided="true"
       sodipodi:arg2="1.5707963"
       sodipodi:arg1="0.52359878"
       sodipodi:r2="36.390652"
       sodipodi:r1="72.781303"
       sodipodi:cy="250.67328"
       sodipodi:cx="-115.79715"
       sodipodi:sides="3"
       id="path4884"
       style="opacity:0.98999999;fill:#002834;fill-opacity:1;stroke:none;stroke-width:0.22682309;stroke-opacity:0"
       sodipodi:type="star"
       inkscape:transform-center-x="-4.4792348e-006" />
    <path
       style="fill:#002f3c;fill-opacity:1;stroke:none;stroke-width:0.03375584px;stroke-linecap:butt;stroke-linejoin:miter;stroke-opacity:1"
       d="m 97.756417,255.40531 c 0,0 1.433927,-3.15972 2.853163,-3.83121 1.62671,-0.76973 5.36116,0.30726 5.36116,0.30726 0,0 0.84115,-3.70995 2.24308,-4.67686 1.30719,-0.90155 4.7071,-0.32818 4.7071,-0.32818 0,0 -3.01591,0.31092 -4.0408,1.31273 -1.33263,1.30264 -1.93368,5.31889 -1.93368,5.31889 0,0 -3.95303,-1.53169 -5.86211,-0.98992 -1.397749,0.39668 -3.327913,2.88729 -3.327913,2.88729 z"
       id="path4886"
       inkscape:connector-curvature="0"
       sodipodi:nodetypes="cacacacac" />
    <path
       sodipodi:nodetypes="cacacacacc"
       inkscape:connector-curvature="0"
       id="path4888"
       d="m 104.8731,259.52608 c 0,0 1.17695,-1.46059 2.01286,-1.59143 1.0248,-0.16044 2.91812,1.10791 2.91812,1.10791 0,0 0.791,-1.95091 1.65277,-2.29438 0.79425,-0.31653 2.50641,0.5086 2.50641,0.5086 0,0 -1.62725,-0.25105 -2.30093,0.12948 -0.86423,0.48812 -1.72496,2.4755 -1.72496,2.4755 0,0 -1.86227,-1.36265 -2.93383,-1.35528 -0.78288,0.005 -2.13044,1.01958 -2.13044,1.01958 z"
       style="fill:#002f3c;fill-opacity:1;stroke:none;stroke-width:0.01827714px;stroke-linecap:butt;stroke-linejoin:miter;stroke-opacity:1" />
    <path
       sodipodi:nodetypes="cacacacac"
       inkscape:connector-curvature="0"
       id="path4890"
       d="m -11.594621,254.23946 c 0,0 2.2577788,-0.18682 3.1244494,0.42539 0.9927963,0.70128 1.7335147,3.26551 1.7335147,3.26551 0,0 2.3110807,-0.67528 3.2933251,-0.16677 0.9455175,0.48949 1.7688009,2.71761 1.7688009,2.71761 0,0 -1.1785149,-1.62313 -2.0598432,-1.89866 -1.1910528,-0.37232 -3.6968436,0.54 -3.6968436,0.54 0,0 -0.5453329,-2.93163 -1.5256585,-3.90507 -0.6730617,-0.66826 -2.6377448,-0.97801 -2.6377448,-0.97801 z"
       style="fill:#002f3c;fill-opacity:1;stroke:none;stroke-width:0.02270976px;stroke-linecap:butt;stroke-linejoin:miter;stroke-opacity:1" />
    <ellipse
       style="opacity:0.98999999;fill:#ffffff;fill-opacity:0.8627451;stroke:none;stroke-width:0.03938535;stroke-opacity:0"
       id="path4892"
       cx="-152.7489"
       cy="181.23149"
       rx="0.62686718"
       ry="0.64640874" />
    <use
       id="use4930"
       inkscape:spray-origin="#path4892"
       xlink:href="#path4892"
       x="0"
       y="0"
       width="100%"
       height="100%"
       transform="translate(-57.493766,-25.072891)" />
    <use
       id="use4932"
       inkscape:spray-origin="#path4892"
       xlink:href="#path4892"
       x="0"
       y="0"
       width="100%"
       height="100%"
       transform="translate(-23.704471,-31.063169)" />
    <use
       id="use4934"
       inkscape:spray-origin="#path4892"
       xlink:href="#path4892"
       x="0"
       y="0"
       width="100%"
       height="100%"
       transform="translate(69.447517,-83.013363)" />
    <use
       id="use4936"
       inkscape:spray-origin="#path4892"
       xlink:href="#path4892"
       x="0"
       y="0"
       width="100%"
       height="100%"
       transform="translate(8.2336395,-94.430529)" />
    <use
       id="use4938"
       inkscape:spray-origin="#path4892"
       xlink:href="#path4892"
       x="0"
       y="0"
       width="100%"
       height="100%"
       transform="translate(-32.248208,-94.947786)" />
    <use
       id="use4940"
       inkscape:spray-origin="#path4892"
       xlink:href="#path4892"
       x="0"
       y="0"
       width="100%"
       height="100%"
       transform="translate(-31.620195,-84.234155)" />
    <use
       id="use4942"
       inkscape:spray-origin="#path4892"
       xlink:href="#path4892"
       x="0"
       y="0"
       width="100%"
       height="100%"
       transform="translate(-6.5135292,-59.937167)" />
    <use
       id="use4944"
       inkscape:spray-origin="#path4892"
       xlink:href="#path4892"
       x="0"
       y="0"
       width="100%"
       height="100%"
       transform="translate(36.559743,-65.70393)" />
    <use
       id="use4946"
       inkscape:spray-origin="#path4892"
       xlink:href="#path4892"
       x="0"
       y="0"
       width="100%"
       height="100%"
       transform="translate(1.7546001,-80.81884)" />
    <use
       id="use4948"
       inkscape:spray-origin="#path4892"
       xlink:href="#path4892"
       x="0"
       y="0"
       width="100%"
       height="100%"
       transform="translate(26.167946,-71.241015)"
       style="opacity:0.63300003" />
    <use
       id="use4950"
       inkscape:spray-origin="#path4892"
       xlink:href="#path4892"
       x="0"
       y="0"
       width="100%"
       height="100%"
       transform="translate(85.639064,-37.91305)" />
    <use
       id="use4952"
       inkscape:spray-origin="#path4892"
       xlink:href="#path4892"
       x="0"
       y="0"
       width="100%"
       height="100%"
       transform="translate(272.82408,-61.640872)" />
    <use
       id="use4954"
       inkscape:spray-origin="#path4892"
       xlink:href="#path4892"
       x="0"
       y="0"
       width="100%"
       height="100%"
       transform="translate(310.23906,-74.121659)" />
    <use
       id="use4956"
       inkscape:spray-origin="#path4892"
       xlink:href="#path4892"
       x="0"
       y="0"
       width="100%"
       height="100%"
       transform="translate(409.26368,-38.83467)"
       style="opacity:0.575" />
    <use
       id="use4958"
       inkscape:spray-origin="#path4892"
       xlink:href="#path4892"
       x="0"
       y="0"
       width="100%"
       height="100%"
       transform="translate(454.18154,12.412996)" />
    <use
       id="use4960"
       inkscape:spray-origin="#path4892"
       xlink:href="#path4892"
       x="0"
       y="0"
       width="100%"
       height="100%"
       transform="translate(53.561646,-1.3624769)"
       style="opacity:0.49000005" />
    <use
       id="use4962"
       inkscape:spray-origin="#path4892"
       xlink:href="#path4892"
       x="0"
       y="0"
       width="100%"
       height="100%"
       transform="translate(52.111424,65.651276)" />
    <use
       id="use4964"
       inkscape:spray-origin="#path4892"
       xlink:href="#path4892"
       x="0"
       y="0"
       width="100%"
       height="100%"
       transform="translate(-48.1129,58.078454)" />
    <use
       id="use4966"
       inkscape:spray-origin="#path4892"
       xlink:href="#path4892"
       x="0"
       y="0"
       width="100%"
       height="100%"
       transform="translate(-31.20543,103.4662)" />
    <use
       id="use4990"
       inkscape:spray-origin="#path4892"
       xlink:href="#path4892"
       x="0"
       y="0"
       width="100%"
       height="100%"
       transform="translate(154.33446,-75.47671)" />
    <use
       id="use4992"
       inkscape:spray-origin="#path4892"
       xlink:href="#path4892"
       x="0"
       y="0"
       width="100%"
       height="100%"
       transform="translate(122.74289,-86.271424)" />
    <use
       id="use4994"
       inkscape:spray-origin="#path4892"
       xlink:href="#path4892"
       x="0"
       y="0"
       width="100%"
       height="100%"
       transform="translate(148.34037,-63.694976)"
       style="opacity:0.53699999" />
    <use
       id="use4996"
       inkscape:spray-origin="#path4892"
       xlink:href="#path4892"
       x="0"
       y="0"
       width="100%"
       height="100%"
       transform="translate(115.88961,-81.479387)" />
    <use
       id="use4998"
       inkscape:spray-origin="#path4892"
       xlink:href="#path4892"
       x="0"
       y="0"
       width="100%"
       height="100%"
       transform="translate(427.95069,90.624482)" />
    <use
       id="use5000"
       inkscape:spray-origin="#path4892"
       xlink:href="#path4892"
       x="0"
       y="0"
       width="100%"
       height="100%"
       transform="translate(363.76156,37.723388)" />
    <use
       id="use5002"
       inkscape:spray-origin="#path4892"
       xlink:href="#path4892"
       x="0"
       y="0"
       width="100%"
       height="100%"
       transform="translate(359.59798,66.544311)"
       style="opacity:0.575" />
    <use
       id="use5004"
       inkscape:spray-origin="#path4892"
       xlink:href="#path4892"
       x="0"
       y="0"
       width="100%"
       height="100%"
       transform="translate(385.74368,74.175001)" />
    <use
       id="use5006"
       inkscape:spray-origin="#path4892"
       xlink:href="#path4892"
       x="0"
       y="0"
       width="100%"
       height="100%"
       transform="translate(401.65212,9.6976699)"
       style="opacity:0.79299999" />
    <use
       id="use5008"
       inkscape:spray-origin="#path4892"
       xlink:href="#path4892"
       x="0"
       y="0"
       width="100%"
       height="100%"
       transform="translate(424.32801,-83.76152)" />
    <use
       id="use5010"
       inkscape:spray-origin="#path4892"
       xlink:href="#path4892"
       x="0"
       y="0"
       width="100%"
       height="100%"
       transform="translate(438.6434,-90.637845)" />
    <use
       id="use5012"
       inkscape:spray-origin="#path4892"
       xlink:href="#path4892"
       x="0"
       y="0"
       width="100%"
       height="100%"
       transform="translate(415.68909,-53.807143)" />
    <use
       id="use5014"
       inkscape:spray-origin="#path4892"
       xlink:href="#path4892"
       x="0"
       y="0"
       width="100%"
       height="100%"
       transform="translate(407.88184,-14.084934)"
       style="opacity:0.41199999" />
    <use
       id="use5016"
       inkscape:spray-origin="#path4892"
       xlink:href="#path4892"
       x="0"
       y="0"
       width="100%"
       height="100%"
       transform="translate(344.95,-46.007083)" />
    <use
       id="use5018"
       inkscape:spray-origin="#path4892"
       xlink:href="#path4892"
       x="0"
       y="0"
       width="100%"
       height="100%"
       transform="translate(396.18526,-49.148001)" />
    <use
       id="use5020"
       inkscape:spray-origin="#path4892"
       xlink:href="#path4892"
       x="0"
       y="0"
       width="100%"
       height="100%"
       transform="translate(321.54069,1.7644843)"
       style="opacity:0.43900003" />
    <use
       id="use5022"
       inkscape:spray-origin="#path4892"
       xlink:href="#path4892"
       x="0"
       y="0"
       width="100%"
       height="100%"
       transform="translate(320.0911,-3.7435535)" />
    <use
       id="use5032"
       inkscape:spray-origin="#path4892"
       xlink:href="#path4892"
       x="0"
       y="0"
       width="100%"
       height="100%"
       transform="translate(211.86246,-25.3232)"
       style="opacity:0.575" />
    <use
       id="use5034"
       inkscape:spray-origin="#path4892"
       xlink:href="#path4892"
       x="0"
       y="0"
       width="100%"
       height="100%"
       transform="translate(109.3753,-0.50304091)"
       style="opacity:0.70099996" />
    <use
       id="use5036"
       inkscape:spray-origin="#path4892"
       xlink:href="#path4892"
       x="0"
       y="0"
       width="100%"
       height="100%"
       transform="translate(134.05939,-36.001095)" />
    <use
       id="use5046"
       inkscape:spray-origin="#path4892"
       xlink:href="#path4892"
       x="0"
       y="0"
       width="100%"
       height="100%"
       transform="translate(43.071699,78.200722)"
       style="opacity:0.73500001" />
    <use
       id="use5048"
       inkscape:spray-origin="#path4892"
       xlink:href="#path4892"
       x="0"
       y="0"
       width="100%"
       height="100%"
       transform="translate(15.402206,99.757488)"
       style="opacity:0.54799996" />
    <use
       id="use5050"
       inkscape:spray-origin="#path4892"
       xlink:href="#path4892"
       x="0"
       y="0"
       width="100%"
       height="100%"
       transform="translate(29.668525,40.677306)" />
    <use
       id="use5052"
       inkscape:spray-origin="#path4892"
       xlink:href="#path4892"
       x="0"
       y="0"
       width="100%"
       height="100%"
       transform="translate(54.886537,141.69983)"
       style="opacity:0.59500002" />
    <use
       id="use5054"
       inkscape:spray-origin="#path4892"
       xlink:href="#path4892"
       x="0"
       y="0"
       width="100%"
       height="100%"
       transform="translate(-78.475806,144.55474)" />
    <use
       id="use5056"
       inkscape:spray-origin="#path4892"
       xlink:href="#path4892"
       x="0"
       y="0"
       width="100%"
       height="100%"
       transform="translate(-78.110394,157.51412)" />
    <use
       id="use5058"
       inkscape:spray-origin="#path4892"
       xlink:href="#path4892"
       x="0"
       y="0"
       width="100%"
       height="100%"
       transform="translate(-70.352612,128.74984)" />
    <use
       id="use5060"
       inkscape:spray-origin="#path4892"
       xlink:href="#path4892"
       x="0"
       y="0"
       width="100%"
       height="100%"
       transform="translate(-67.336587,143.99936)" />
    <use
       id="use5062"
       inkscape:spray-origin="#path4892"
       xlink:href="#path4892"
       x="0"
       y="0"
       width="100%"
       height="100%"
       transform="translate(-60.070776,149.62017)" />
    <use
       id="use5064"
       inkscape:spray-origin="#path4892"
       xlink:href="#path4892"
       x="0"
       y="0"
       width="100%"
       height="100%"
       transform="translate(-6.484041,137.60375)" />
    <use
       id="use5066"
       inkscape:spray-origin="#path4892"
       xlink:href="#path4892"
       x="0"
       y="0"
       width="100%"
       height="100%"
       transform="translate(-38.641588,125.4317)" />
    <use
       id="use5068"
       inkscape:spray-origin="#path4892"
       xlink:href="#path4892"
       x="0"
       y="0"
       width="100%"
       height="100%"
       transform="translate(19.337275,-37.062554)" />
    <use
       id="use5070"
       inkscape:spray-origin="#path4892"
       xlink:href="#path4892"
       x="0"
       y="0"
       width="100%"
       height="100%"
       transform="translate(-13.468514,82.770974)"
       style="opacity:0.64299999" />
    <use
       id="use5072"
       inkscape:spray-origin="#path4892"
       xlink:href="#path4892"
       x="0"
       y="0"
       width="100%"
       height="100%"
       transform="translate(-29.433435,24.901251)" />
    <use
       id="use5074"
       inkscape:spray-origin="#path4892"
       xlink:href="#path4892"
       x="0"
       y="0"
       width="100%"
       height="100%"
       transform="translate(-23.224314,76.458283)" />
    <use
       id="use5076"
       inkscape:spray-origin="#path4892"
       xlink:href="#path4892"
       x="0"
       y="0"
       width="100%"
       height="100%"
       transform="translate(414.2325,139.98745)"
       style="opacity:0.67699998" />
    <use
       id="use5078"
       inkscape:spray-origin="#path4892"
       xlink:href="#path4892"
       x="0"
       y="0"
       width="100%"
       height="100%"
       transform="translate(437.79493,65.755603)" />
    <use
       id="use5080"
       inkscape:spray-origin="#path4892"
       xlink:href="#path4892"
       x="0"
       y="0"
       width="100%"
       height="100%"
       transform="translate(404.90019,125.05615)" />
    <use
       id="use5082"
       inkscape:spray-origin="#path4892"
       xlink:href="#path4892"
       x="0"
       y="0"
       width="100%"
       height="100%"
       transform="translate(454.33978,137.89959)" />
    <use
       id="use5084"
       inkscape:spray-origin="#path4892"
       xlink:href="#path4892"
       x="0"
       y="0"
       width="100%"
       height="100%"
       transform="translate(416.90956,-28.061177)" />
    <use
       id="use5086"
       inkscape:spray-origin="#path4892"
       xlink:href="#path4892"
       x="0"
       y="0"
       width="100%"
       height="100%"
       transform="translate(438.01601,-96.756308)" />
    <use
       id="use5088"
       inkscape:spray-origin="#path4892"
       xlink:href="#path4892"
       x="0"
       y="0"
       width="100%"
       height="100%"
       transform="translate(469.41284,-50.817119)" />
    <use
       id="use5090"
       inkscape:spray-origin="#path4892"
       xlink:href="#path4892"
       x="0"
       y="0"
       width="100%"
       height="100%"
       transform="translate(446.04285,-79.321208)" />
    <use
       id="use5092"
       inkscape:spray-origin="#path4892"
       xlink:href="#path4892"
       x="0"
       y="0"
       width="100%"
       height="100%"
       transform="translate(448.86266,-69.05605)" />
    <use
       id="use5094"
       inkscape:spray-origin="#path4892"
       xlink:href="#path4892"
       x="0"
       y="0"
       width="100%"
       height="100%"
       transform="translate(77.776014,15.062269)" />
    <use
       id="use5096"
       inkscape:spray-origin="#path4892"
       xlink:href="#path4892"
       x="0"
       y="0"
       width="100%"
       height="100%"
       transform="translate(8.2643768,9.169064)"
       style="opacity:0.61199999" />
    <use
       id="use5098"
       inkscape:spray-origin="#path4892"
       xlink:href="#path4892"
       x="0"
       y="0"
       width="100%"
       height="100%"
       transform="translate(190.95548,-59.321513)" />
    <use
       id="use5100"
       inkscape:spray-origin="#path4892"
       xlink:href="#path4892"
       x="0"
       y="0"
       width="100%"
       height="100%"
       transform="translate(98.191664,-46.160052)" />
    <use
       transform="translate(253.26548,-80.216606)"
       height="100%"
       width="100%"
       y="0"
       x="0"
       xlink:href="#path4892"
       inkscape:spray-origin="#path4892"
       id="use5102" />
    <use
       id="use5104"
       inkscape:spray-origin="#path4892"
       xlink:href="#path4892"
       x="0"
       y="0"
       width="100%"
       height="100%"
       transform="translate(467.04448,50.377722)" />
    <path
       style="opacity:0.98999999;fill:#ffffff;fill-opacity:0.11764706;stroke:none;stroke-width:0.26179549;stroke-opacity:0"
       d="m -167.1949,145.19718 a 7.0526796,6.2812534 0 0 0 -6.92477,5.10652 8.6868993,7.7367211 0 0 0 -7.39104,7.64341 8.6868993,7.7367211 0 0 0 8.68691,7.73672 8.6868993,7.7367211 0 0 0 6.1706,-2.30032 8.6868993,7.7367211 0 0 0 6.17655,2.30032 8.6868993,7.7367211 0 0 0 5.41742,-1.69007 6.2355698,5.5535193 0 0 0 4.4785,1.69007 6.2355698,5.5535193 0 0 0 6.23563,-5.55357 6.2355698,5.5535193 0 0 0 -6.23563,-5.55315 6.2355698,5.5535193 0 0 0 -1.94185,0.28303 8.6868993,7.7367211 0 0 0 -7.77085,-4.64133 7.0526796,6.2812534 0 0 0 -6.90147,-5.02163 z"
       id="path5106"
       inkscape:connector-curvature="0" />
    <path
       inkscape:connector-curvature="0"
       id="path5118"
       d="m 253.26983,204.73025 a 7.6080033,7.4937317 0 0 0 -7.47006,6.09226 9.3709,9.2301499 0 0 0 -7.97296,9.11881 9.3709,9.2301499 0 0 0 9.37089,9.23018 9.3709,9.2301499 0 0 0 6.65646,-2.74438 9.3709,9.2301499 0 0 0 6.66289,2.74438 9.3709,9.2301499 0 0 0 5.84397,-2.01633 6.7265547,6.6255226 0 0 0 4.83112,2.01633 6.7265547,6.6255226 0 0 0 6.72663,-6.62562 6.7265547,6.6255226 0 0 0 -6.72663,-6.62506 6.7265547,6.6255226 0 0 0 -2.09473,0.33763 9.3709,9.2301499 0 0 0 -8.3827,-5.53725 7.6080033,7.4937317 0 0 0 -7.44488,-5.99095 z"
       style="opacity:0.98999999;fill:#ffffff;fill-opacity:0.11764706;stroke:none;stroke-width:0.29699311;stroke-opacity:0" />
    <path
       style="opacity:0.98999999;fill:#ffffff;fill-opacity:0.11764706;stroke:none;stroke-width:0.38737729;stroke-opacity:0"
       d="m 122.56777,165.74504 a 9.9233549,9.7743035 0 0 0 -9.74342,7.94632 12.222752,12.03917 0 0 0 -10.3994,11.89395 12.222752,12.03917 0 0 0 12.22276,12.03917 12.222752,12.03917 0 0 0 8.68224,-3.57954 12.222752,12.03917 0 0 0 8.69061,3.57954 12.222752,12.03917 0 0 0 7.62245,-2.62996 8.7736518,8.6418722 0 0 0 6.3014,2.62996 8.7736518,8.6418722 0 0 0 8.77375,-8.64194 8.7736518,8.6418722 0 0 0 -8.77375,-8.64132 8.7736518,8.6418722 0 0 0 -2.73224,0.4404 12.222752,12.03917 0 0 0 -10.93384,-7.2224 9.9233549,9.7743035 0 0 0 -9.71056,-7.81418 z"
       id="path5120"
       inkscape:connector-curvature="0" />
    <path
       inkscape:connector-curvature="0"
       id="path5122"
       d="m -72.600709,249.0074 a 5.0452243,4.9694454 0 0 0 -4.953739,4.04005 6.2142842,6.1209457 0 0 0 -5.287254,6.04714 6.2142842,6.1209457 0 0 0 6.21428,6.12093 6.2142842,6.1209457 0 0 0 4.414218,-1.81992 6.2142842,6.1209457 0 0 0 4.418479,1.81992 6.2142842,6.1209457 0 0 0 3.875399,-1.33711 4.4606943,4.3936953 0 0 0 3.203756,1.33711 4.4606943,4.3936953 0 0 0 4.460744,-4.39372 4.4606943,4.3936953 0 0 0 -4.460744,-4.39342 4.4606943,4.3936953 0 0 0 -1.38912,0.22389 6.2142842,6.1209457 0 0 0 -5.558976,-3.672 5.0452243,4.9694454 0 0 0 -4.937043,-3.97287 z"
       style="opacity:0.98999999;fill:#ffffff;fill-opacity:0.11764706;stroke:none;stroke-width:0.19695009;stroke-opacity:0" />
    <rect
       style="opacity:1;fill:#002834;fill-opacity:1;stroke:none;stroke-width:0.26458335;stroke-opacity:0"
       id="left_blink"
       width="11.316917"
       height="2.6980729"
       x="20.237764"
       y="289.858"
       inkscape:label="#rect5186" />
    <rect
       inkscape:label="#rect5186"
       y="289.858"
       x="70.077164"
       height="2.6980729"
       width="11.316917"
       id="right_blink"
       style="opacity:1;fill:#002834;fill-opacity:1;stroke:none;stroke-width:0.26458335;stroke-opacity:0" />
  </g>
</svg>
