<?xml version="1.0" encoding="UTF-8"?>
<!-- Created with Inkscape (http://www.inkscape.org/) -->
<svg width="295.61mm" height="81.489mm" version="1.1" viewBox="0 0 295.61 81.489" xmlns="http://www.w3.org/2000/svg">
 <g transform="translate(-2.6024 -123.87)">
  <path d="m150.37 128.87a149.99 91.973 0 0 0-147.76 76.489h295.61a149.99 91.973 0 0 0-147.84-76.489z" stroke-width=".37081"/>
  <path id="blob-left-eye" d="m132.48 144.05c-1.365 0.80398-2.9055 2.521-2.7568 4.3334s1.9866 3.7201 3.7028 3.9108c1.7162 0.1907 3.3108-1.3355 3.7568-3.0933 0.44597-1.7578-0.25673-3.7473-1.2027-4.7966-0.94594-1.0493-2.1351-1.1583-3.5001-0.35437z" fill="#fff" stroke="#000" stroke-width=".11547px"/>
  <path id="blob-right-eye" d="m161.98 144.97c-0.38169 0.65243-0.84666 1.4177-0.6651 2.5038s1.0096 2.4928 2.0543 3.3254 2.306 1.0912 3.5209 0.29193c1.2148-0.79927 2.3832-2.6563 2.3797-4.3626-3e-3 -1.7063-1.1527-3.2271-2.4277-3.7961-1.275-0.56902-2.5646-0.13649-3.3733 0.35453s-1.1071 1.0306-1.4888 1.683z" fill="#fff" stroke="#000" stroke-width=".077927px"/>
 </g>
</svg>
